<mxfile host="app.diagrams.net" modified="2023-04-07T00:34:53.445Z" agent="Mozilla/5.0 (Macintosh; Intel Mac OS X 10.15; rv:109.0) Gecko/20100101 Firefox/111.0" etag="VA7eerUXGIsZm1pb1CmD" version="21.1.5" type="device">
  <diagram name="Page-1" id="vAiEzB1_hZBB9OekP_NB">
    <mxGraphModel dx="1804" dy="551" grid="1" gridSize="10" guides="1" tooltips="1" connect="1" arrows="1" fold="1" page="1" pageScale="1" pageWidth="850" pageHeight="1100" math="0" shadow="0">
      <root>
        <mxCell id="0" />
        <mxCell id="1" parent="0" />
        <mxCell id="Sp94uTFNNIEQR_-PiGVk-12" value="" style="group" vertex="1" connectable="0" parent="1">
          <mxGeometry x="-70" y="60" width="830" height="80" as="geometry" />
        </mxCell>
        <mxCell id="Sp94uTFNNIEQR_-PiGVk-1" value="Download Data" style="rounded=1;whiteSpace=wrap;html=1;movable=1;resizable=1;rotatable=1;deletable=1;editable=1;locked=0;connectable=1;" vertex="1" parent="Sp94uTFNNIEQR_-PiGVk-12">
          <mxGeometry x="150" y="10" width="120" height="60" as="geometry" />
        </mxCell>
        <mxCell id="Sp94uTFNNIEQR_-PiGVk-2" value="&lt;div&gt;Extract Zip&lt;/div&gt;" style="rounded=1;whiteSpace=wrap;html=1;movable=1;resizable=1;rotatable=1;deletable=1;editable=1;locked=0;connectable=1;" vertex="1" parent="Sp94uTFNNIEQR_-PiGVk-12">
          <mxGeometry x="300" y="10" width="120" height="60" as="geometry" />
        </mxCell>
        <mxCell id="Sp94uTFNNIEQR_-PiGVk-8" style="edgeStyle=orthogonalEdgeStyle;rounded=0;orthogonalLoop=1;jettySize=auto;html=1;entryX=0;entryY=0.5;entryDx=0;entryDy=0;movable=1;resizable=1;rotatable=1;deletable=1;editable=1;locked=0;connectable=1;" edge="1" parent="Sp94uTFNNIEQR_-PiGVk-12" source="Sp94uTFNNIEQR_-PiGVk-1" target="Sp94uTFNNIEQR_-PiGVk-2">
          <mxGeometry relative="1" as="geometry" />
        </mxCell>
        <mxCell id="Sp94uTFNNIEQR_-PiGVk-3" value="Split data into open and close eyes" style="rounded=1;whiteSpace=wrap;html=1;movable=1;resizable=1;rotatable=1;deletable=1;editable=1;locked=0;connectable=1;" vertex="1" parent="Sp94uTFNNIEQR_-PiGVk-12">
          <mxGeometry x="450" y="10" width="120" height="60" as="geometry" />
        </mxCell>
        <mxCell id="Sp94uTFNNIEQR_-PiGVk-9" style="edgeStyle=orthogonalEdgeStyle;rounded=0;orthogonalLoop=1;jettySize=auto;html=1;movable=1;resizable=1;rotatable=1;deletable=1;editable=1;locked=0;connectable=1;" edge="1" parent="Sp94uTFNNIEQR_-PiGVk-12" source="Sp94uTFNNIEQR_-PiGVk-2" target="Sp94uTFNNIEQR_-PiGVk-3">
          <mxGeometry relative="1" as="geometry" />
        </mxCell>
        <mxCell id="Sp94uTFNNIEQR_-PiGVk-4" value="Split Data into Train and Test" style="rounded=1;whiteSpace=wrap;html=1;movable=1;resizable=1;rotatable=1;deletable=1;editable=1;locked=0;connectable=1;" vertex="1" parent="Sp94uTFNNIEQR_-PiGVk-12">
          <mxGeometry x="600" y="10" width="120" height="60" as="geometry" />
        </mxCell>
        <mxCell id="Sp94uTFNNIEQR_-PiGVk-10" style="edgeStyle=orthogonalEdgeStyle;rounded=0;orthogonalLoop=1;jettySize=auto;html=1;entryX=0;entryY=0.5;entryDx=0;entryDy=0;movable=1;resizable=1;rotatable=1;deletable=1;editable=1;locked=0;connectable=1;" edge="1" parent="Sp94uTFNNIEQR_-PiGVk-12" source="Sp94uTFNNIEQR_-PiGVk-3" target="Sp94uTFNNIEQR_-PiGVk-4">
          <mxGeometry relative="1" as="geometry" />
        </mxCell>
        <mxCell id="Sp94uTFNNIEQR_-PiGVk-7" style="edgeStyle=orthogonalEdgeStyle;rounded=0;orthogonalLoop=1;jettySize=auto;html=1;entryX=0;entryY=0.5;entryDx=0;entryDy=0;movable=1;resizable=1;rotatable=1;deletable=1;editable=1;locked=0;connectable=1;" edge="1" parent="Sp94uTFNNIEQR_-PiGVk-12" source="Sp94uTFNNIEQR_-PiGVk-5" target="Sp94uTFNNIEQR_-PiGVk-1">
          <mxGeometry relative="1" as="geometry" />
        </mxCell>
        <mxCell id="Sp94uTFNNIEQR_-PiGVk-5" value="&lt;div&gt;Raw Data Zip file&lt;/div&gt;" style="rounded=0;whiteSpace=wrap;html=1;movable=1;resizable=1;rotatable=1;deletable=1;editable=1;locked=0;connectable=1;" vertex="1" parent="Sp94uTFNNIEQR_-PiGVk-12">
          <mxGeometry y="10" width="120" height="60" as="geometry" />
        </mxCell>
        <mxCell id="Sp94uTFNNIEQR_-PiGVk-6" value="Usable Image Data that can be used for Training and Testing" style="whiteSpace=wrap;html=1;aspect=fixed;movable=1;resizable=1;rotatable=1;deletable=1;editable=1;locked=0;connectable=1;" vertex="1" parent="Sp94uTFNNIEQR_-PiGVk-12">
          <mxGeometry x="750" width="80" height="80" as="geometry" />
        </mxCell>
        <mxCell id="Sp94uTFNNIEQR_-PiGVk-11" style="edgeStyle=orthogonalEdgeStyle;rounded=0;orthogonalLoop=1;jettySize=auto;html=1;entryX=0;entryY=0.5;entryDx=0;entryDy=0;movable=1;resizable=1;rotatable=1;deletable=1;editable=1;locked=0;connectable=1;" edge="1" parent="Sp94uTFNNIEQR_-PiGVk-12" source="Sp94uTFNNIEQR_-PiGVk-4" target="Sp94uTFNNIEQR_-PiGVk-6">
          <mxGeometry relative="1" as="geometry" />
        </mxCell>
      </root>
    </mxGraphModel>
  </diagram>
</mxfile>
